# teste.obj
#
 
# g cube

v -1.0 -1.0  1.0
v -1.0  1.0  1.0
v  1.0  1.0  1.0
v  1.0 -1.0  1.0
v -1.0 -1.0 -1.0
v -1.0  1.0 -1.0
v  1.0  1.0 -1.0
v  1.0 -1.0 -1.0

vn  0.0  0.0 -1.0
vn  0.0  0.0  1.0
vn  1.0  0.0  0.0
vn  0.0 -1.0  0.0
vn -1.0  0.0  0.0
vn  0.0  1.0  0.0
vn  0.0  0.0 -1.0
vn  0.0  0.0  1.0
vn  1.0  0.0  0.0
vn  0.0 -1.0  0.0
vn -1.0  0.0  0.0
vn  0.0  1.0  0.0

vt 0.250  0.333
vt 0.250  0.000
vt 0.500  0.000
vt 0.250  1.000
vt 0.250  0.667
vt 0.500  0.667
vt 1.000  0.667
vt 0.750  0.667
vt 0.750  0.333
vt 0.750  0.667
vt 0.500  0.667
vt 0.500  0.333
vt 0.250  0.333
vt 0.500  0.333
vt 0.500  0.667
vt 0.250  0.667
vt 0.000  0.667
vt 0.000  0.333
vt 0.500  0.333
vt 0.250  0.333
vt 0.500  0.000
vt 0.500  1.000
vt 0.250  1.000
vt 0.500  0.667
vt 1.000  0.333
vt 1.000  0.667
vt 0.750  0.333
vt 0.750  0.333
vt 0.750  0.667
vt 0.500  0.333
vt 0.250  0.667
vt 0.250  0.333
vt 0.500  0.667
vt 0.250  0.333
vt 0.250  0.667
vt 0.000  0.333

f  02/01/01  03/02/01  04/03/01
f  08/04/02  07/05/02  06/06/02 
f  05/07/03  06/08/03  02/09/03 
f  06/10/04  07/11/04  03/12/04 
f  07/13/05  08/14/05  04/15/05 
f  01/16/06  04/17/06  08/18/06 
f  01/19/07  02/20/07  04/21/07 
f  05/22/08  08/23/08  06/24/08 
f  01/25/09  05/26/09  02/27/09 
f  02/28/10  06/29/10  03/30/10 
f  03/31/11  07/32/11  04/33/11 
f  05/34/12  01/35/12  08/36/12 