# Teste1.obj
#

# g teste1
# plano 0
v  100.0  100.0 100.0  1.0 1.0 1.0
v -100.0  100.0 100.0  1.0 1.0 1.0
v -100.0 -100.0 100.0  1.0 1.0 1.0
v  100.0 -100.0 100.0  1.0 1.0 1.0

# plano 1
v  50.0  100.0 0.0  1.0 0.0 0.0
v 250.0  100.0 0.0  1.0 0.0 0.0
v  50.0 -100.0 0.0  1.0 0.0 0.0
v 250.0 -100.0 0.0  1.0 0.0 0.0

# plano 2
v -250.0  100.0 -100.0  0.0 0.0 1.0
v  -50.0  100.0 -100.0  0.0 0.0 1.0
v -250.0 -100.0 -100.0  0.0 0.0 1.0
v  -50.0 -100.0 -100.0  0.0 0.0 1.0

# plano 3
v  100.0  100.0 -200.0  0.0 1.0 0.0
v -100.0  100.0 -200.0  0.0 1.0 0.0
v -100.0 -100.0 -200.0  0.0 1.0 0.0
v  100.0 -100.0 -200.0  0.0 1.0 0.0

# plano 4
v  900.0  100.0 -500.0  1.0 1.0 0.0
v -900.0  100.0 -500.0  1.0 1.0 0.0
v -900.0 -100.0 -500.0  1.0 1.0 0.0
v  900.0 -100.0 -500.0  1.0 1.0 0.0

# Plano Todos
vn 0.0 0.0 1.0

# f v1/vt1/vn1
f 01//01 02//01 03//01
f 03//01 04//01 01//01

f 06//01 05//01 07//01
f 07//01 08//01 06//01

f 10//01 09//01 11//01
f 11//01 12//01 10//01

f 13//01 14//01 15//01
f 15//01 16//01 13//01

f 17//01 18//01 19//01
f 19//01 20//01 17//01
