# Square1.obj
#

# g Square1
# quad 1 (x y z R G B)
v -100 -100 0 1.0 1.0 1.0
v  100 -100 0 1.0 1.0 1.0
v  100  100 0 1.0 1.0 1.0
v -100  100 0 1.0 1.0 1.0

# quad 2 (x y z R G B)
v 200 -100 -100 1.0 1.0 1.0
v 200 -100  100 1.0 1.0 1.0
v 200  100  100 1.0 1.0 1.0
v 200  100 -100 1.0 1.0 1.0

# Face 1
vn 0 0 1

# Face 2
vn 0 0 1

# Face 3
vn -1 0 0

# Face 4
vn -1 0 0

# Textura quad 1
vt 0.0 0.0
vt 1.0 0.0
vt 1.0 1.0
vt 0.0 1.0

# Textura quad 2
vt 0.0 0.0
vt 1.0 0.0
vt 1.0 1.0
vt 0.0 1.0

# f v1/vt1/vn1
f 01/01/01 02/02/01 03/03/01
f 03/03/02 04/04/02 01/01/02
f 05/05/03 06/06/03 07/07/03
f 07/07/04 08/08/04 05/05/04
