{
  "asset": {
    "generator": "glTF-Transform v4.2.1",
    "version": "2.0"
  },
  "accessors": [
    {
      "type": "VEC3",
      "componentType": 5126,
      "count": 91578,
      "max": [
        32.032203674316406,
        53.0106315612793,
        83.04979705810547
      ],
      "min": [
        -20.7701473236084,
        3.742645740509033,
        -111.50447845458984
      ],
      "bufferView": 0,
      "byteOffset": 0
    },
    {
      "type": "VEC3",
      "componentType": 5126,
      "count": 91578,
      "bufferView": 0,
      "byteOffset": 12
    },
    {
      "type": "VEC2",
      "componentType": 5126,
      "count": 91578,
      "bufferView": 0,
      "byteOffset": 24
    },
    {
      "type": "SCALAR",
      "componentType": 5125,
      "count": 18,
      "bufferView": 1,
      "byteOffset": 0
    },
    {
      "type": "SCALAR",
      "componentType": 5125,
      "count": 1704,
      "bufferView": 1,
      "byteOffset": 72
    },
    {
      "type": "SCALAR",
      "componentType": 5125,
      "count": 36,
      "bufferView": 1,
      "byteOffset": 6888
    },
    {
      "type": "SCALAR",
      "componentType": 5125,
      "count": 4470,
      "bufferView": 1,
      "byteOffset": 7032
    },
    {
      "type": "SCALAR",
      "componentType": 5125,
      "count": 13521,
      "bufferView": 1,
      "byteOffset": 24912
    },
    {
      "type": "SCALAR",
      "componentType": 5125,
      "count": 792,
      "bufferView": 1,
      "byteOffset": 78996
    },
    {
      "type": "SCALAR",
      "componentType": 5125,
      "count": 10248,
      "bufferView": 1,
      "byteOffset": 82164
    },
    {
      "type": "SCALAR",
      "componentType": 5125,
      "count": 3894,
      "bufferView": 1,
      "byteOffset": 123156
    },
    {
      "type": "SCALAR",
      "componentType": 5125,
      "count": 17322,
      "bufferView": 1,
      "byteOffset": 138732
    },
    {
      "type": "SCALAR",
      "componentType": 5125,
      "count": 11598,
      "bufferView": 1,
      "byteOffset": 208020
    },
    {
      "type": "SCALAR",
      "componentType": 5125,
      "count": 606,
      "bufferView": 1,
      "byteOffset": 254412
    },
    {
      "type": "SCALAR",
      "componentType": 5125,
      "count": 582,
      "bufferView": 1,
      "byteOffset": 256836
    },
    {
      "type": "SCALAR",
      "componentType": 5125,
      "count": 4683,
      "bufferView": 1,
      "byteOffset": 259164
    },
    {
      "type": "SCALAR",
      "componentType": 5125,
      "count": 14454,
      "bufferView": 1,
      "byteOffset": 277896
    },
    {
      "type": "SCALAR",
      "componentType": 5125,
      "count": 4692,
      "bufferView": 1,
      "byteOffset": 335712
    },
    {
      "type": "SCALAR",
      "componentType": 5125,
      "count": 2958,
      "bufferView": 1,
      "byteOffset": 354480
    },
    {
      "type": "SCALAR",
      "componentType": 5123,
      "count": 5709,
      "bufferView": 1,
      "byteOffset": 366312
    },
    {
      "type": "SCALAR",
      "componentType": 5123,
      "count": 4938,
      "bufferView": 1,
      "byteOffset": 377732
    },
    {
      "type": "SCALAR",
      "componentType": 5123,
      "count": 5715,
      "bufferView": 1,
      "byteOffset": 387608
    },
    {
      "type": "SCALAR",
      "componentType": 5123,
      "count": 4932,
      "bufferView": 1,
      "byteOffset": 399040
    },
    {
      "type": "SCALAR",
      "componentType": 5123,
      "count": 312,
      "bufferView": 1,
      "byteOffset": 408904
    },
    {
      "type": "SCALAR",
      "componentType": 5123,
      "count": 585,
      "bufferView": 1,
      "byteOffset": 409528
    },
    {
      "type": "SCALAR",
      "componentType": 5123,
      "count": 75,
      "bufferView": 1,
      "byteOffset": 410700
    },
    {
      "type": "SCALAR",
      "componentType": 5123,
      "count": 2076,
      "bufferView": 1,
      "byteOffset": 410852
    },
    {
      "type": "SCALAR",
      "componentType": 5123,
      "count": 312,
      "bufferView": 1,
      "byteOffset": 415004
    },
    {
      "type": "SCALAR",
      "componentType": 5123,
      "count": 609,
      "bufferView": 1,
      "byteOffset": 415628
    },
    {
      "type": "SCALAR",
      "componentType": 5123,
      "count": 75,
      "bufferView": 1,
      "byteOffset": 416848
    },
    {
      "type": "SCALAR",
      "componentType": 5123,
      "count": 2043,
      "bufferView": 1,
      "byteOffset": 417000
    },
    {
      "type": "SCALAR",
      "componentType": 5123,
      "count": 243,
      "bufferView": 1,
      "byteOffset": 421088
    },
    {
      "type": "SCALAR",
      "componentType": 5123,
      "count": 1596,
      "bufferView": 1,
      "byteOffset": 421576
    },
    {
      "type": "SCALAR",
      "componentType": 5123,
      "count": 243,
      "bufferView": 1,
      "byteOffset": 424768
    },
    {
      "type": "SCALAR",
      "componentType": 5123,
      "count": 1596,
      "bufferView": 1,
      "byteOffset": 425256
    },
    {
      "type": "SCALAR",
      "componentType": 5123,
      "count": 282,
      "bufferView": 1,
      "byteOffset": 428448
    },
    {
      "type": "SCALAR",
      "componentType": 5123,
      "count": 1428,
      "bufferView": 1,
      "byteOffset": 429012
    },
    {
      "type": "SCALAR",
      "componentType": 5123,
      "count": 2256,
      "bufferView": 1,
      "byteOffset": 431868
    },
    {
      "type": "SCALAR",
      "componentType": 5123,
      "count": 162,
      "bufferView": 1,
      "byteOffset": 436380
    },
    {
      "type": "SCALAR",
      "componentType": 5123,
      "count": 576,
      "bufferView": 1,
      "byteOffset": 436704
    },
    {
      "type": "SCALAR",
      "componentType": 5123,
      "count": 2256,
      "bufferView": 1,
      "byteOffset": 437856
    },
    {
      "type": "SCALAR",
      "componentType": 5123,
      "count": 162,
      "bufferView": 1,
      "byteOffset": 442368
    },
    {
      "type": "SCALAR",
      "componentType": 5123,
      "count": 576,
      "bufferView": 1,
      "byteOffset": 442692
    },
    {
      "type": "SCALAR",
      "componentType": 5123,
      "count": 1584,
      "bufferView": 1,
      "byteOffset": 443844
    },
    {
      "type": "SCALAR",
      "componentType": 5123,
      "count": 4614,
      "bufferView": 1,
      "byteOffset": 447012
    },
    {
      "type": "SCALAR",
      "componentType": 5123,
      "count": 1584,
      "bufferView": 1,
      "byteOffset": 456240
    },
    {
      "type": "SCALAR",
      "componentType": 5123,
      "count": 4614,
      "bufferView": 1,
      "byteOffset": 459408
    },
    {
      "type": "SCALAR",
      "componentType": 5123,
      "count": 4614,
      "bufferView": 1,
      "byteOffset": 468636
    },
    {
      "type": "SCALAR",
      "componentType": 5123,
      "count": 1584,
      "bufferView": 1,
      "byteOffset": 477864
    },
    {
      "type": "SCALAR",
      "componentType": 5123,
      "count": 1578,
      "bufferView": 1,
      "byteOffset": 481032
    },
    {
      "type": "SCALAR",
      "componentType": 5123,
      "count": 4902,
      "bufferView": 1,
      "byteOffset": 484188
    },
    {
      "type": "SCALAR",
      "componentType": 5123,
      "count": 6,
      "bufferView": 1,
      "byteOffset": 493992
    },
    {
      "type": "SCALAR",
      "componentType": 5123,
      "count": 1584,
      "bufferView": 1,
      "byteOffset": 494004
    },
    {
      "type": "SCALAR",
      "componentType": 5123,
      "count": 4614,
      "bufferView": 1,
      "byteOffset": 497172
    },
    {
      "type": "SCALAR",
      "componentType": 5123,
      "count": 1584,
      "bufferView": 1,
      "byteOffset": 506400
    },
    {
      "type": "SCALAR",
      "componentType": 5123,
      "count": 4614,
      "bufferView": 1,
      "byteOffset": 509568
    },
    {
      "type": "SCALAR",
      "componentType": 5123,
      "count": 1584,
      "bufferView": 1,
      "byteOffset": 518796
    },
    {
      "type": "SCALAR",
      "componentType": 5123,
      "count": 4902,
      "bufferView": 1,
      "byteOffset": 521964
    },
    {
      "type": "SCALAR",
      "componentType": 5123,
      "count": 3072,
      "bufferView": 1,
      "byteOffset": 531768
    },
    {
      "type": "SCALAR",
      "componentType": 5123,
      "count": 1920,
      "bufferView": 1,
      "byteOffset": 537912
    },
    {
      "type": "SCALAR",
      "componentType": 5123,
      "count": 3072,
      "bufferView": 1,
      "byteOffset": 541752
    },
    {
      "type": "SCALAR",
      "componentType": 5123,
      "count": 1920,
      "bufferView": 1,
      "byteOffset": 547896
    },
    {
      "type": "SCALAR",
      "componentType": 5123,
      "count": 5580,
      "bufferView": 1,
      "byteOffset": 551736
    },
    {
      "type": "SCALAR",
      "componentType": 5123,
      "count": 6144,
      "bufferView": 1,
      "byteOffset": 562896
    },
    {
      "type": "SCALAR",
      "componentType": 5123,
      "count": 3168,
      "bufferView": 1,
      "byteOffset": 575184
    },
    {
      "type": "SCALAR",
      "componentType": 5123,
      "count": 17796,
      "bufferView": 1,
      "byteOffset": 581520
    },
    {
      "type": "SCALAR",
      "componentType": 5123,
      "count": 3060,
      "bufferView": 1,
      "byteOffset": 617112
    },
    {
      "type": "SCALAR",
      "componentType": 5123,
      "count": 3504,
      "bufferView": 1,
      "byteOffset": 623232
    },
    {
      "type": "SCALAR",
      "componentType": 5123,
      "count": 192,
      "bufferView": 1,
      "byteOffset": 630240
    },
    {
      "type": "SCALAR",
      "componentType": 5123,
      "count": 984,
      "bufferView": 1,
      "byteOffset": 630624
    },
    {
      "type": "SCALAR",
      "componentType": 5123,
      "count": 192,
      "bufferView": 1,
      "byteOffset": 632592
    },
    {
      "type": "SCALAR",
      "componentType": 5123,
      "count": 984,
      "bufferView": 1,
      "byteOffset": 632976
    },
    {
      "type": "SCALAR",
      "componentType": 5123,
      "count": 1320,
      "bufferView": 1,
      "byteOffset": 634944
    },
    {
      "type": "SCALAR",
      "componentType": 5123,
      "count": 4464,
      "bufferView": 1,
      "byteOffset": 637584
    },
    {
      "type": "VEC3",
      "componentType": 5126,
      "count": 10647,
      "max": [
        24.168434143066406,
        13.112894058227539,
        34.245216369628906
      ],
      "min": [
        18.416532516479492,
        7.646663665771484,
        2.9509034156799316
      ],
      "bufferView": 2,
      "byteOffset": 0
    },
    {
      "type": "VEC3",
      "componentType": 5126,
      "count": 10647,
      "bufferView": 2,
      "byteOffset": 12
    },
    {
      "type": "VEC2",
      "componentType": 5126,
      "count": 10647,
      "bufferView": 2,
      "byteOffset": 24
    },
    {
      "type": "VEC3",
      "componentType": 5126,
      "count": 10647,
      "max": [
        29.8865909576416,
        14.230175971984863,
        37.90544509887695
      ],
      "min": [
        24.13469123840332,
        8.763947486877441,
        6.6111345291137695
      ],
      "bufferView": 3,
      "byteOffset": 0
    },
    {
      "type": "VEC3",
      "componentType": 5126,
      "count": 10647,
      "bufferView": 3,
      "byteOffset": 12
    },
    {
      "type": "VEC2",
      "componentType": 5126,
      "count": 10647,
      "bufferView": 3,
      "byteOffset": 24
    },
    {
      "type": "VEC3",
      "componentType": 5126,
      "count": 1674,
      "max": [
        -17.908031463623047,
        9.906327247619629,
        52.05499267578125
      ],
      "min": [
        -19.713930130004883,
        4.265462398529053,
        42.96881103515625
      ],
      "bufferView": 4,
      "byteOffset": 0
    },
    {
      "type": "VEC3",
      "componentType": 5126,
      "count": 1674,
      "bufferView": 4,
      "byteOffset": 12
    },
    {
      "type": "VEC2",
      "componentType": 5126,
      "count": 1674,
      "bufferView": 4,
      "byteOffset": 24
    },
    {
      "type": "VEC3",
      "componentType": 5126,
      "count": 1674,
      "max": [
        19.713930130004883,
        9.906327247619629,
        52.05499267578125
      ],
      "min": [
        17.90802764892578,
        4.265462398529053,
        42.96881103515625
      ],
      "bufferView": 5,
      "byteOffset": 0
    },
    {
      "type": "VEC3",
      "componentType": 5126,
      "count": 1674,
      "bufferView": 5,
      "byteOffset": 12
    },
    {
      "type": "VEC2",
      "componentType": 5126,
      "count": 1674,
      "bufferView": 5,
      "byteOffset": 24
    },
    {
      "type": "VEC3",
      "componentType": 5126,
      "count": 2784,
      "max": [
        3.4372174739837646,
        9.257380485534668,
        -10.271222114562988
      ],
      "min": [
        -3.5110528469085693,
        -0.6400944590568542,
        -16.16510581970215
      ],
      "bufferView": 6,
      "byteOffset": 0
    },
    {
      "type": "VEC3",
      "componentType": 5126,
      "count": 2784,
      "bufferView": 6,
      "byteOffset": 12
    },
    {
      "type": "VEC2",
      "componentType": 5126,
      "count": 2784,
      "bufferView": 6,
      "byteOffset": 24
    },
    {
      "type": "VEC3",
      "componentType": 5126,
      "count": 1566,
      "max": [
        1.54495108127594,
        9.571562767028809,
        -9.356096267700195
      ],
      "min": [
        -1.5096263885498047,
        7.095841884613037,
        -12.778422355651855
      ],
      "bufferView": 7,
      "byteOffset": 0
    },
    {
      "type": "VEC3",
      "componentType": 5126,
      "count": 1566,
      "bufferView": 7,
      "byteOffset": 12
    },
    {
      "type": "VEC2",
      "componentType": 5126,
      "count": 1566,
      "bufferView": 7,
      "byteOffset": 24
    },
    {
      "type": "VEC3",
      "componentType": 5126,
      "count": 3048,
      "max": [
        17.955867767333984,
        28.040313720703125,
        71.1302719116211
      ],
      "min": [
        10.517796516418457,
        12.729555130004883,
        56.2271614074707
      ],
      "bufferView": 8,
      "byteOffset": 0
    },
    {
      "type": "VEC3",
      "componentType": 5126,
      "count": 3048,
      "bufferView": 8,
      "byteOffset": 12
    },
    {
      "type": "VEC2",
      "componentType": 5126,
      "count": 3048,
      "bufferView": 8,
      "byteOffset": 24
    },
    {
      "type": "VEC3",
      "componentType": 5126,
      "count": 3039,
      "max": [
        -10.670831680297852,
        28.040313720703125,
        71.1302719116211
      ],
      "min": [
        -17.955867767333984,
        12.729555130004883,
        56.2271614074707
      ],
      "bufferView": 9,
      "byteOffset": 0
    },
    {
      "type": "VEC3",
      "componentType": 5126,
      "count": 3039,
      "bufferView": 9,
      "byteOffset": 12
    },
    {
      "type": "VEC2",
      "componentType": 5126,
      "count": 3039,
      "bufferView": 9,
      "byteOffset": 24
    },
    {
      "type": "VEC3",
      "componentType": 5126,
      "count": 1839,
      "max": [
        18.34912109375,
        27.89011573791504,
        36.07585906982422
      ],
      "min": [
        13.056797981262207,
        14.652899742126465,
        25.852386474609375
      ],
      "bufferView": 10,
      "byteOffset": 0
    },
    {
      "type": "VEC3",
      "componentType": 5126,
      "count": 1839,
      "bufferView": 10,
      "byteOffset": 12
    },
    {
      "type": "VEC2",
      "componentType": 5126,
      "count": 1839,
      "bufferView": 10,
      "byteOffset": 24
    },
    {
      "type": "VEC3",
      "componentType": 5126,
      "count": 1839,
      "max": [
        17.912609100341797,
        27.873432159423828,
        25.840137481689453
      ],
      "min": [
        12.620285987854004,
        14.636214256286621,
        15.616663932800293
      ],
      "bufferView": 11,
      "byteOffset": 0
    },
    {
      "type": "VEC3",
      "componentType": 5126,
      "count": 1839,
      "bufferView": 11,
      "byteOffset": 12
    },
    {
      "type": "VEC2",
      "componentType": 5126,
      "count": 1839,
      "bufferView": 11,
      "byteOffset": 24
    },
    {
      "type": "VEC3",
      "componentType": 5126,
      "count": 1710,
      "max": [
        -14.410412788391113,
        26.48223876953125,
        39.18366622924805
      ],
      "min": [
        -18.401382446289062,
        10.246256828308105,
        26.20499610900879
      ],
      "bufferView": 12,
      "byteOffset": 0
    },
    {
      "type": "VEC3",
      "componentType": 5126,
      "count": 1710,
      "bufferView": 12,
      "byteOffset": 12
    },
    {
      "type": "VEC2",
      "componentType": 5126,
      "count": 1710,
      "bufferView": 12,
      "byteOffset": 24
    },
    {
      "type": "VEC3",
      "componentType": 5126,
      "count": 42,
      "max": [
        14.73869800567627,
        28.408788681030273,
        35.900142669677734
      ],
      "min": [
        12.510514259338379,
        27.251623153686523,
        15.347599983215332
      ],
      "bufferView": 13,
      "byteOffset": 0
    },
    {
      "type": "VEC3",
      "componentType": 5126,
      "count": 42,
      "bufferView": 13,
      "byteOffset": 12
    },
    {
      "type": "VEC2",
      "componentType": 5126,
      "count": 42,
      "bufferView": 13,
      "byteOffset": 24
    },
    {
      "type": "VEC3",
      "componentType": 5126,
      "count": 2304,
      "max": [
        -18.548866271972656,
        29.620954513549805,
        32.869441986083984
      ],
      "min": [
        -20.187835693359375,
        26.829843521118164,
        30.817060470581055
      ],
      "bufferView": 14,
      "byteOffset": 0
    },
    {
      "type": "VEC3",
      "componentType": 5126,
      "count": 2304,
      "bufferView": 14,
      "byteOffset": 12
    },
    {
      "type": "VEC2",
      "componentType": 5126,
      "count": 2304,
      "bufferView": 14,
      "byteOffset": 24
    },
    {
      "type": "VEC3",
      "componentType": 5126,
      "count": 1479,
      "max": [
        9.955755233764648,
        17.858739852905273,
        69.5798110961914
      ],
      "min": [
        7.64088773727417,
        10.090082168579102,
        64.5877914428711
      ],
      "bufferView": 15,
      "byteOffset": 0
    },
    {
      "type": "VEC3",
      "componentType": 5126,
      "count": 1479,
      "bufferView": 15,
      "byteOffset": 12
    },
    {
      "type": "VEC2",
      "componentType": 5126,
      "count": 1479,
      "bufferView": 15,
      "byteOffset": 24
    },
    {
      "type": "VEC3",
      "componentType": 5126,
      "count": 1452,
      "max": [
        -7.6408867835998535,
        17.858739852905273,
        69.5798110961914
      ],
      "min": [
        -9.955754280090332,
        10.090082168579102,
        64.5877914428711
      ],
      "bufferView": 16,
      "byteOffset": 0
    },
    {
      "type": "VEC3",
      "componentType": 5126,
      "count": 1452,
      "bufferView": 16,
      "byteOffset": 12
    },
    {
      "type": "VEC2",
      "componentType": 5126,
      "count": 1452,
      "bufferView": 16,
      "byteOffset": 24
    },
    {
      "type": "VEC3",
      "componentType": 5126,
      "count": 2994,
      "max": [
        12.214211463928223,
        26.17289161682129,
        64.81136322021484
      ],
      "min": [
        3.6094658374786377,
        10.812124252319336,
        52.62868118286133
      ],
      "bufferView": 17,
      "byteOffset": 0
    },
    {
      "type": "VEC3",
      "componentType": 5126,
      "count": 2994,
      "bufferView": 17,
      "byteOffset": 12
    },
    {
      "type": "VEC2",
      "componentType": 5126,
      "count": 2994,
      "bufferView": 17,
      "byteOffset": 24
    },
    {
      "type": "VEC3",
      "componentType": 5126,
      "count": 2994,
      "max": [
        -3.6094651222229004,
        26.17289161682129,
        64.81136322021484
      ],
      "min": [
        -12.214210510253906,
        10.812124252319336,
        52.62868118286133
      ],
      "bufferView": 18,
      "byteOffset": 0
    },
    {
      "type": "VEC3",
      "componentType": 5126,
      "count": 2994,
      "bufferView": 18,
      "byteOffset": 12
    },
    {
      "type": "VEC2",
      "componentType": 5126,
      "count": 2994,
      "bufferView": 18,
      "byteOffset": 24
    },
    {
      "type": "VEC3",
      "componentType": 5126,
      "count": 6198,
      "max": [
        -7.949636936187744,
        25.077159881591797,
        34.15046691894531
      ],
      "min": [
        -15.792431831359863,
        9.468934059143066,
        23.92772102355957
      ],
      "bufferView": 19,
      "byteOffset": 0
    },
    {
      "type": "VEC3",
      "componentType": 5126,
      "count": 6198,
      "bufferView": 19,
      "byteOffset": 12
    },
    {
      "type": "VEC2",
      "componentType": 5126,
      "count": 6198,
      "bufferView": 19,
      "byteOffset": 24
    },
    {
      "type": "VEC3",
      "componentType": 5126,
      "count": 6198,
      "max": [
        -0.1326448619365692,
        25.077159881591797,
        34.15046691894531
      ],
      "min": [
        -7.975439548492432,
        9.468934059143066,
        23.92772102355957
      ],
      "bufferView": 20,
      "byteOffset": 0
    },
    {
      "type": "VEC3",
      "componentType": 5126,
      "count": 6198,
      "bufferView": 20,
      "byteOffset": 12
    },
    {
      "type": "VEC2",
      "componentType": 5126,
      "count": 6198,
      "bufferView": 20,
      "byteOffset": 24
    },
    {
      "type": "VEC3",
      "componentType": 5126,
      "count": 6198,
      "max": [
        7.730309963226318,
        25.077159881591797,
        34.15046691894531
      ],
      "min": [
        -0.11248447746038437,
        9.468934059143066,
        23.92772102355957
      ],
      "bufferView": 21,
      "byteOffset": 0
    },
    {
      "type": "VEC3",
      "componentType": 5126,
      "count": 6198,
      "bufferView": 21,
      "byteOffset": 12
    },
    {
      "type": "VEC2",
      "componentType": 5126,
      "count": 6198,
      "bufferView": 21,
      "byteOffset": 24
    },
    {
      "type": "VEC3",
      "componentType": 5126,
      "count": 6486,
      "max": [
        15.520123481750488,
        25.077159881591797,
        34.15046691894531
      ],
      "min": [
        7.6773295402526855,
        9.468934059143066,
        23.92772102355957
      ],
      "bufferView": 22,
      "byteOffset": 0
    },
    {
      "type": "VEC3",
      "componentType": 5126,
      "count": 6486,
      "bufferView": 22,
      "byteOffset": 12
    },
    {
      "type": "VEC2",
      "componentType": 5126,
      "count": 6486,
      "bufferView": 22,
      "byteOffset": 24
    },
    {
      "type": "VEC3",
      "componentType": 5126,
      "count": 6198,
      "max": [
        10.637442588806152,
        25.075685501098633,
        24.392690658569336
      ],
      "min": [
        2.7946488857269287,
        9.461527824401855,
        14.134984016418457
      ],
      "bufferView": 23,
      "byteOffset": 0
    },
    {
      "type": "VEC3",
      "componentType": 5126,
      "count": 6198,
      "bufferView": 23,
      "byteOffset": 12
    },
    {
      "type": "VEC2",
      "componentType": 5126,
      "count": 6198,
      "bufferView": 23,
      "byteOffset": 24
    },
    {
      "type": "VEC3",
      "componentType": 5126,
      "count": 6198,
      "max": [
        2.774486541748047,
        25.075685501098633,
        24.392690658569336
      ],
      "min": [
        -5.068308353424072,
        9.461527824401855,
        14.134984016418457
      ],
      "bufferView": 24,
      "byteOffset": 0
    },
    {
      "type": "VEC3",
      "componentType": 5126,
      "count": 6198,
      "bufferView": 24,
      "byteOffset": 12
    },
    {
      "type": "VEC2",
      "componentType": 5126,
      "count": 6198,
      "bufferView": 24,
      "byteOffset": 24
    },
    {
      "type": "VEC3",
      "componentType": 5126,
      "count": 6486,
      "max": [
        -5.015326023101807,
        25.075685501098633,
        24.392690658569336
      ],
      "min": [
        -12.858120918273926,
        9.461527824401855,
        14.134984016418457
      ],
      "bufferView": 25,
      "byteOffset": 0
    },
    {
      "type": "VEC3",
      "componentType": 5126,
      "count": 6486,
      "bufferView": 25,
      "byteOffset": 12
    },
    {
      "type": "VEC2",
      "componentType": 5126,
      "count": 6486,
      "bufferView": 25,
      "byteOffset": 24
    },
    {
      "type": "VEC3",
      "componentType": 5126,
      "count": 60,
      "max": [
        0.5553752779960632,
        5.262103080749512,
        -14.118208885192871
      ],
      "min": [
        -0.10715819895267487,
        2.6084115505218506,
        -15.542863845825195
      ],
      "bufferView": 26,
      "byteOffset": 0
    },
    {
      "type": "VEC3",
      "componentType": 5126,
      "count": 60,
      "bufferView": 26,
      "byteOffset": 12
    },
    {
      "type": "VEC2",
      "componentType": 5126,
      "count": 60,
      "bufferView": 26,
      "byteOffset": 24
    },
    {
      "type": "VEC3",
      "componentType": 5126,
      "count": 528,
      "max": [
        1.3707691431045532,
        8.911837577819824,
        -12.101054191589355
      ],
      "min": [
        -1.2578085660934448,
        3.6099400520324707,
        -14.900240898132324
      ],
      "bufferView": 27,
      "byteOffset": 0
    },
    {
      "type": "VEC3",
      "componentType": 5126,
      "count": 528,
      "bufferView": 27,
      "byteOffset": 12
    },
    {
      "type": "VEC2",
      "componentType": 5126,
      "count": 528,
      "bufferView": 27,
      "byteOffset": 24
    },
    {
      "type": "VEC3",
      "componentType": 5126,
      "count": 576,
      "max": [
        -17.518157958984375,
        15.143431663513184,
        42.723331451416016
      ],
      "min": [
        -19.706424713134766,
        9.3673734664917,
        40.00628662109375
      ],
      "bufferView": 28,
      "byteOffset": 0
    },
    {
      "type": "VEC3",
      "componentType": 5126,
      "count": 576,
      "bufferView": 28,
      "byteOffset": 12
    },
    {
      "type": "VEC2",
      "componentType": 5126,
      "count": 576,
      "bufferView": 28,
      "byteOffset": 24
    },
    {
      "type": "VEC3",
      "componentType": 5126,
      "count": 1896,
      "max": [
        -17.291034698486328,
        12.020048141479492,
        44.48986053466797
      ],
      "min": [
        -22.36565589904785,
        2.5059640407562256,
        40.99081039428711
      ],
      "bufferView": 29,
      "byteOffset": 0
    },
    {
      "type": "VEC3",
      "componentType": 5126,
      "count": 1896,
      "bufferView": 29,
      "byteOffset": 12
    },
    {
      "type": "VEC2",
      "componentType": 5126,
      "count": 1896,
      "bufferView": 29,
      "byteOffset": 24
    },
    {
      "type": "VEC3",
      "componentType": 5126,
      "count": 4992,
      "max": [
        -19.46299171447754,
        8.470438003540039,
        47.24028015136719
      ],
      "min": [
        -22.350984573364258,
        -0.24422915279865265,
        38.52561569213867
      ],
      "bufferView": 30,
      "byteOffset": 0
    },
    {
      "type": "VEC3",
      "componentType": 5126,
      "count": 4992,
      "bufferView": 30,
      "byteOffset": 12
    },
    {
      "type": "VEC2",
      "componentType": 5126,
      "count": 4992,
      "bufferView": 30,
      "byteOffset": 24
    },
    {
      "type": "VEC3",
      "componentType": 5126,
      "count": 576,
      "max": [
        19.706424713134766,
        15.143431663513184,
        42.723331451416016
      ],
      "min": [
        17.518157958984375,
        9.3673734664917,
        40.00628662109375
      ],
      "bufferView": 31,
      "byteOffset": 0
    },
    {
      "type": "VEC3",
      "componentType": 5126,
      "count": 576,
      "bufferView": 31,
      "byteOffset": 12
    },
    {
      "type": "VEC2",
      "componentType": 5126,
      "count": 576,
      "bufferView": 31,
      "byteOffset": 24
    },
    {
      "type": "VEC3",
      "componentType": 5126,
      "count": 1896,
      "max": [
        22.36565589904785,
        12.020048141479492,
        44.48986053466797
      ],
      "min": [
        17.291034698486328,
        2.5059640407562256,
        40.99081039428711
      ],
      "bufferView": 32,
      "byteOffset": 0
    },
    {
      "type": "VEC3",
      "componentType": 5126,
      "count": 1896,
      "bufferView": 32,
      "byteOffset": 12
    },
    {
      "type": "VEC2",
      "componentType": 5126,
      "count": 1896,
      "bufferView": 32,
      "byteOffset": 24
    },
    {
      "type": "VEC3",
      "componentType": 5126,
      "count": 4992,
      "max": [
        22.350984573364258,
        8.470438003540039,
        47.24028015136719
      ],
      "min": [
        19.462993621826172,
        -0.24422915279865265,
        38.52561569213867
      ],
      "bufferView": 33,
      "byteOffset": 0
    },
    {
      "type": "VEC3",
      "componentType": 5126,
      "count": 4992,
      "bufferView": 33,
      "byteOffset": 12
    },
    {
      "type": "VEC2",
      "componentType": 5126,
      "count": 4992,
      "bufferView": 33,
      "byteOffset": 24
    },
    {
      "type": "VEC3",
      "componentType": 5126,
      "count": 11724,
      "max": [
        3.5179383754730225,
        3.8318307399749756,
        -11.69317626953125
      ],
      "min": [
        -3.6251893043518066,
        -1.8758186101913452,
        -17.400829315185547
      ],
      "bufferView": 34,
      "byteOffset": 0
    },
    {
      "type": "VEC3",
      "componentType": 5126,
      "count": 11724,
      "bufferView": 34,
      "byteOffset": 12
    },
    {
      "type": "VEC2",
      "componentType": 5126,
      "count": 11724,
      "bufferView": 34,
      "byteOffset": 24
    },
    {
      "type": "VEC3",
      "componentType": 5126,
      "count": 27528,
      "max": [
        95.01256561279297,
        46.826141357421875,
        120.31756591796875
      ],
      "min": [
        -95.01256561279297,
        33.809085845947266,
        -69.7072982788086
      ],
      "bufferView": 35,
      "byteOffset": 0
    },
    {
      "type": "VEC3",
      "componentType": 5126,
      "count": 27528,
      "bufferView": 35,
      "byteOffset": 12
    },
    {
      "type": "VEC2",
      "componentType": 5126,
      "count": 27528,
      "bufferView": 35,
      "byteOffset": 24
    },
    {
      "type": "VEC3",
      "componentType": 5126,
      "count": 1176,
      "max": [
        -2.726203680038452,
        26.24384117126465,
        74.5369873046875
      ],
      "min": [
        -7.796069622039795,
        19.504596710205078,
        66.99832916259766
      ],
      "bufferView": 36,
      "byteOffset": 0
    },
    {
      "type": "VEC3",
      "componentType": 5126,
      "count": 1176,
      "bufferView": 36,
      "byteOffset": 12
    },
    {
      "type": "VEC2",
      "componentType": 5126,
      "count": 1176,
      "bufferView": 36,
      "byteOffset": 24
    },
    {
      "type": "VEC3",
      "componentType": 5126,
      "count": 1176,
      "max": [
        7.796069622039795,
        26.24384117126465,
        74.5369873046875
      ],
      "min": [
        2.726203680038452,
        19.504596710205078,
        66.99832916259766
      ],
      "bufferView": 37,
      "byteOffset": 0
    },
    {
      "type": "VEC3",
      "componentType": 5126,
      "count": 1176,
      "bufferView": 37,
      "byteOffset": 12
    },
    {
      "type": "VEC2",
      "componentType": 5126,
      "count": 1176,
      "bufferView": 37,
      "byteOffset": 24
    },
    {
      "type": "VEC3",
      "componentType": 5126,
      "count": 4878,
      "max": [
        29.32498550415039,
        23.92372703552246,
        -85.0131607055664
      ],
      "min": [
        -27.241012573242188,
        21.682052612304688,
        -99.13166046142578
      ],
      "bufferView": 38,
      "byteOffset": 0
    },
    {
      "type": "VEC3",
      "componentType": 5126,
      "count": 4878,
      "bufferView": 38,
      "byteOffset": 12
    },
    {
      "type": "VEC2",
      "componentType": 5126,
      "count": 4878,
      "bufferView": 38,
      "byteOffset": 24
    },
    {
      "type": "VEC3",
      "componentType": 5126,
      "count": 342,
      "max": [
        2.1188957691192627,
        22.50633430480957,
        -93.00096130371094
      ],
      "min": [
        0.8411799669265747,
        15.579133987426758,
        -94.94566345214844
      ],
      "bufferView": 39,
      "byteOffset": 0
    },
    {
      "type": "VEC3",
      "componentType": 5126,
      "count": 342,
      "bufferView": 39,
      "byteOffset": 12
    },
    {
      "type": "VEC2",
      "componentType": 5126,
      "count": 342,
      "bufferView": 39,
      "byteOffset": 24
    },
    {
      "type": "VEC3",
      "componentType": 5126,
      "count": 342,
      "max": [
        1.3148006200790405,
        18.427268981933594,
        -84.16522216796875
      ],
      "min": [
        0.31353959441185,
        15.578941345214844,
        -94.94586181640625
      ],
      "bufferView": 40,
      "byteOffset": 0
    },
    {
      "type": "VEC3",
      "componentType": 5126,
      "count": 342,
      "bufferView": 40,
      "byteOffset": 12
    },
    {
      "type": "VEC2",
      "componentType": 5126,
      "count": 342,
      "bufferView": 40,
      "byteOffset": 24
    },
    {
      "type": "VEC3",
      "componentType": 5126,
      "count": 5784,
      "max": [
        1.7850799560546875,
        65.39293670654297,
        -82.5687484741211
      ],
      "min": [
        -6.404430389404297,
        30.39603042602539,
        -118.47322082519531
      ],
      "bufferView": 41,
      "byteOffset": 0
    },
    {
      "type": "VEC3",
      "componentType": 5126,
      "count": 5784,
      "bufferView": 41,
      "byteOffset": 12
    },
    {
      "type": "VEC2",
      "componentType": 5126,
      "count": 5784,
      "bufferView": 41,
      "byteOffset": 24
    }
  ],
  "bufferViews": [
    {
      "buffer": 0,
      "byteOffset": 0,
      "byteLength": 2930496,
      "byteStride": 32,
      "target": 34962
    },
    {
      "buffer": 0,
      "byteOffset": 2930496,
      "byteLength": 646512,
      "target": 34963
    },
    {
      "buffer": 0,
      "byteOffset": 3577008,
      "byteLength": 340704,
      "byteStride": 32,
      "target": 34962
    },
    {
      "buffer": 0,
      "byteOffset": 3917712,
      "byteLength": 340704,
      "byteStride": 32,
      "target": 34962
    },
    {
      "buffer": 0,
      "byteOffset": 4258416,
      "byteLength": 53568,
      "byteStride": 32,
      "target": 34962
    },
    {
      "buffer": 0,
      "byteOffset": 4311984,
      "byteLength": 53568,
      "byteStride": 32,
      "target": 34962
    },
    {
      "buffer": 0,
      "byteOffset": 4365552,
      "byteLength": 89088,
      "byteStride": 32,
      "target": 34962
    },
    {
      "buffer": 0,
      "byteOffset": 4454640,
      "byteLength": 50112,
      "byteStride": 32,
      "target": 34962
    },
    {
      "buffer": 0,
      "byteOffset": 4504752,
      "byteLength": 97536,
      "byteStride": 32,
      "target": 34962
    },
    {
      "buffer": 0,
      "byteOffset": 4602288,
      "byteLength": 97248,
      "byteStride": 32,
      "target": 34962
    },
    {
      "buffer": 0,
      "byteOffset": 4699536,
      "byteLength": 58848,
      "byteStride": 32,
      "target": 34962
    },
    {
      "buffer": 0,
      "byteOffset": 4758384,
      "byteLength": 58848,
      "byteStride": 32,
      "target": 34962
    },
    {
      "buffer": 0,
      "byteOffset": 4817232,
      "byteLength": 54720,
      "byteStride": 32,
      "target": 34962
    },
    {
      "buffer": 0,
      "byteOffset": 4871952,
      "byteLength": 1344,
      "byteStride": 32,
      "target": 34962
    },
    {
      "buffer": 0,
      "byteOffset": 4873296,
      "byteLength": 73728,
      "byteStride": 32,
      "target": 34962
    },
    {
      "buffer": 0,
      "byteOffset": 4947024,
      "byteLength": 47328,
      "byteStride": 32,
      "target": 34962
    },
    {
      "buffer": 0,
      "byteOffset": 4994352,
      "byteLength": 46464,
      "byteStride": 32,
      "target": 34962
    },
    {
      "buffer": 0,
      "byteOffset": 5040816,
      "byteLength": 95808,
      "byteStride": 32,
      "target": 34962
    },
    {
      "buffer": 0,
      "byteOffset": 5136624,
      "byteLength": 95808,
      "byteStride": 32,
      "target": 34962
    },
    {
      "buffer": 0,
      "byteOffset": 5232432,
      "byteLength": 198336,
      "byteStride": 32,
      "target": 34962
    },
    {
      "buffer": 0,
      "byteOffset": 5430768,
      "byteLength": 198336,
      "byteStride": 32,
      "target": 34962
    },
    {
      "buffer": 0,
      "byteOffset": 5629104,
      "byteLength": 198336,
      "byteStride": 32,
      "target": 34962
    },
    {
      "buffer": 0,
      "byteOffset": 5827440,
      "byteLength": 207552,
      "byteStride": 32,
      "target": 34962
    },
    {
      "buffer": 0,
      "byteOffset": 6034992,
      "byteLength": 198336,
      "byteStride": 32,
      "target": 34962
    },
    {
      "buffer": 0,
      "byteOffset": 6233328,
      "byteLength": 198336,
      "byteStride": 32,
      "target": 34962
    },
    {
      "buffer": 0,
      "byteOffset": 6431664,
      "byteLength": 207552,
      "byteStride": 32,
      "target": 34962
    },
    {
      "buffer": 0,
      "byteOffset": 6639216,
      "byteLength": 1920,
      "byteStride": 32,
      "target": 34962
    },
    {
      "buffer": 0,
      "byteOffset": 6641136,
      "byteLength": 16896,
      "byteStride": 32,
      "target": 34962
    },
    {
      "buffer": 0,
      "byteOffset": 6658032,
      "byteLength": 18432,
      "byteStride": 32,
      "target": 34962
    },
    {
      "buffer": 0,
      "byteOffset": 6676464,
      "byteLength": 60672,
      "byteStride": 32,
      "target": 34962
    },
    {
      "buffer": 0,
      "byteOffset": 6737136,
      "byteLength": 159744,
      "byteStride": 32,
      "target": 34962
    },
    {
      "buffer": 0,
      "byteOffset": 6896880,
      "byteLength": 18432,
      "byteStride": 32,
      "target": 34962
    },
    {
      "buffer": 0,
      "byteOffset": 6915312,
      "byteLength": 60672,
      "byteStride": 32,
      "target": 34962
    },
    {
      "buffer": 0,
      "byteOffset": 6975984,
      "byteLength": 159744,
      "byteStride": 32,
      "target": 34962
    },
    {
      "buffer": 0,
      "byteOffset": 7135728,
      "byteLength": 375168,
      "byteStride": 32,
      "target": 34962
    },
    {
      "buffer": 0,
      "byteOffset": 7510896,
      "byteLength": 880896,
      "byteStride": 32,
      "target": 34962
    },
    {
      "buffer": 0,
      "byteOffset": 8391792,
      "byteLength": 37632,
      "byteStride": 32,
      "target": 34962
    },
    {
      "buffer": 0,
      "byteOffset": 8429424,
      "byteLength": 37632,
      "byteStride": 32,
      "target": 34962
    },
    {
      "buffer": 0,
      "byteOffset": 8467056,
      "byteLength": 156096,
      "byteStride": 32,
      "target": 34962
    },
    {
      "buffer": 0,
      "byteOffset": 8623152,
      "byteLength": 10944,
      "byteStride": 32,
      "target": 34962
    },
    {
      "buffer": 0,
      "byteOffset": 8634096,
      "byteLength": 10944,
      "byteStride": 32,
      "target": 34962
    },
    {
      "buffer": 0,
      "byteOffset": 8645040,
      "byteLength": 185088,
      "byteStride": 32,
      "target": 34962
    }
  ],
  "samplers": [
    {
      "magFilter": 9729,
      "minFilter": 9987,
      "wrapS": 33071,
      "wrapT": 33071
    }
  ],
  "textures": [
    {
      "source": 0,
      "sampler": 0
    },
    {
      "source": 1,
      "sampler": 0
    },
    {
      "source": 2,
      "sampler": 0
    },
    {
      "source": 3,
      "sampler": 0
    },
    {
      "source": 4,
      "sampler": 0
    },
    {
      "source": 5,
      "sampler": 0
    }
  ],
  "images": [
    {
      "mimeType": "image/png",
      "uri": "baseColor_1.png"
    },
    {
      "mimeType": "image/png",
      "uri": "baseColor_2.png"
    },
    {
      "mimeType": "image/png",
      "uri": "baseColor_3.png"
    },
    {
      "mimeType": "image/png",
      "uri": "baseColor_4.png"
    },
    {
      "mimeType": "image/png",
      "uri": "baseColor_5.png"
    },
    {
      "mimeType": "image/png",
      "uri": "baseColor_6.png"
    }
  ],
  "buffers": [
    {
      "uri": "buffer.bin",
      "byteLength": 8830128
    }
  ],
  "materials": [
    {
      "name": "InstrumentPanel",
      "doubleSided": true,
      "pbrMetallicRoughness": {
        "baseColorFactor": [
          0,
          0,
          0,
          1
        ],
        "metallicFactor": 0,
        "baseColorTexture": {
          "index": 0
        }
      },
      "emissiveTexture": {
        "index": 0
      },
      "occlusionTexture": {
        "index": 0
      }
    },
    {
      "name": "Glass1",
      "alphaMode": "BLEND",
      "doubleSided": true,
      "pbrMetallicRoughness": {
        "baseColorFactor": [
          0.02868434228,
          0.02868434228,
          0.02868434228,
          0.28926002979300003
        ],
        "metallicFactor": 0
      }
    },
    {
      "name": "OtherPanel",
      "doubleSided": true,
      "pbrMetallicRoughness": {
        "baseColorFactor": [
          0,
          0,
          0,
          1
        ],
        "metallicFactor": 0,
        "baseColorTexture": {
          "index": 1
        }
      },
      "occlusionTexture": {
        "index": 1
      }
    },
    {
      "name": "InteriorGenericSteelPanels",
      "doubleSided": true,
      "pbrMetallicRoughness": {
        "baseColorFactor": [
          0.264463990927,
          0.264463990927,
          0.264463990927,
          1
        ],
        "metallicFactor": 0
      }
    },
    {
      "name": "RHBodyTex",
      "doubleSided": true,
      "pbrMetallicRoughness": {
        "baseColorFactor": [
          0,
          0,
          0,
          1
        ],
        "metallicFactor": 0,
        "baseColorTexture": {
          "index": 2
        }
      },
      "occlusionTexture": {
        "index": 2
      }
    },
    {
      "name": "Headlight",
      "alphaMode": "BLEND",
      "doubleSided": true,
      "pbrMetallicRoughness": {
        "baseColorFactor": [
          0.481633991003,
          0.53507733345,
          0.561999976635,
          0.48760002851499995
        ],
        "metallicFactor": 0
      }
    },
    {
      "name": "Trim2",
      "doubleSided": true,
      "pbrMetallicRoughness": {
        "baseColorFactor": [
          0.601648032665,
          0.601648032665,
          0.601648032665,
          1
        ],
        "metallicFactor": 0
      }
    },
    {
      "name": "PaintedBlackSteel",
      "doubleSided": true,
      "pbrMetallicRoughness": {
        "baseColorFactor": [
          0.125615999103,
          0.125615999103,
          0.125615999103,
          1
        ],
        "metallicFactor": 0
      }
    },
    {
      "name": "GlossyWhite",
      "doubleSided": true,
      "pbrMetallicRoughness": {
        "baseColorFactor": [
          0.58182400465,
          0.58182400465,
          0.58182400465,
          1
        ],
        "metallicFactor": 0
      }
    },
    {
      "name": "Aluminum",
      "doubleSided": true,
      "pbrMetallicRoughness": {
        "baseColorFactor": [
          0.374426394701,
          0.40000000596,
          0.368800014257,
          1
        ],
        "metallicFactor": 0
      }
    },
    {
      "name": "Mirror",
      "doubleSided": true,
      "pbrMetallicRoughness": {
        "baseColorFactor": [
          0,
          0,
          0,
          1
        ],
        "metallicFactor": 0
      }
    },
    {
      "name": "ReflectorRed",
      "doubleSided": true,
      "pbrMetallicRoughness": {
        "baseColorFactor": [
          0.800000011921,
          0.130399987102,
          0.144684791565,
          1
        ],
        "metallicFactor": 0
      }
    },
    {
      "name": "TopTex",
      "doubleSided": true,
      "pbrMetallicRoughness": {
        "baseColorFactor": [
          0,
          0,
          0,
          1
        ],
        "metallicFactor": 0,
        "baseColorTexture": {
          "index": 3
        }
      },
      "occlusionTexture": {
        "index": 3
      }
    },
    {
      "name": "LHBodyTex",
      "doubleSided": true,
      "pbrMetallicRoughness": {
        "baseColorFactor": [
          0,
          0,
          0,
          1
        ],
        "metallicFactor": 0,
        "baseColorTexture": {
          "index": 4
        }
      },
      "occlusionTexture": {
        "index": 4
      }
    },
    {
      "name": "FlatBlack",
      "doubleSided": true,
      "pbrMetallicRoughness": {
        "baseColorFactor": [
          0,
          0,
          0,
          1
        ],
        "metallicFactor": 0
      }
    },
    {
      "name": "BottomTex",
      "doubleSided": true,
      "pbrMetallicRoughness": {
        "baseColorFactor": [
          0,
          0,
          0,
          1
        ],
        "metallicFactor": 0,
        "baseColorTexture": {
          "index": 5
        }
      },
      "occlusionTexture": {
        "index": 5
      }
    },
    {
      "name": "FrontSeat",
      "doubleSided": true,
      "pbrMetallicRoughness": {
        "baseColorFactor": [
          0.329732239246,
          0.30039998889,
          0.40000000596,
          1
        ],
        "metallicFactor": 0
      }
    },
    {
      "name": "FrontSeatHeadrest",
      "doubleSided": true,
      "pbrMetallicRoughness": {
        "baseColorFactor": [
          0.556672036648,
          0.544000029564,
          0.800000011921,
          1
        ],
        "metallicFactor": 0
      }
    },
    {
      "name": "SafetyOrange",
      "doubleSided": true,
      "pbrMetallicRoughness": {
        "baseColorFactor": [
          0.800000011921,
          0.251774936914,
          0.133599996567,
          1
        ],
        "metallicFactor": 0
      }
    },
    {
      "name": "TireTread",
      "doubleSided": true,
      "pbrMetallicRoughness": {
        "baseColorFactor": [
          0.157020002604,
          0.157020002604,
          0.157020002604,
          1
        ],
        "metallicFactor": 0
      }
    },
    {
      "name": "PropellerGray",
      "doubleSided": true,
      "pbrMetallicRoughness": {
        "baseColorFactor": [
          0.396078467369,
          0.396078467369,
          0.396078467369,
          1
        ],
        "metallicFactor": 0
      }
    }
  ],
  "meshes": [
    {
      "primitives": [
        {
          "attributes": {
            "POSITION": 0,
            "NORMAL": 1,
            "TEXCOORD_0": 2
          },
          "mode": 4,
          "material": 0,
          "indices": 3
        },
        {
          "attributes": {
            "POSITION": 0,
            "NORMAL": 1,
            "TEXCOORD_0": 2
          },
          "mode": 4,
          "material": 1,
          "indices": 4
        },
        {
          "attributes": {
            "POSITION": 0,
            "NORMAL": 1,
            "TEXCOORD_0": 2
          },
          "mode": 4,
          "material": 2,
          "indices": 5
        },
        {
          "attributes": {
            "POSITION": 0,
            "NORMAL": 1,
            "TEXCOORD_0": 2
          },
          "mode": 4,
          "material": 3,
          "indices": 6
        },
        {
          "attributes": {
            "POSITION": 0,
            "NORMAL": 1,
            "TEXCOORD_0": 2
          },
          "mode": 4,
          "material": 4,
          "indices": 7
        },
        {
          "attributes": {
            "POSITION": 0,
            "NORMAL": 1,
            "TEXCOORD_0": 2
          },
          "mode": 4,
          "material": 5,
          "indices": 8
        },
        {
          "attributes": {
            "POSITION": 0,
            "NORMAL": 1,
            "TEXCOORD_0": 2
          },
          "mode": 4,
          "material": 6,
          "indices": 9
        },
        {
          "attributes": {
            "POSITION": 0,
            "NORMAL": 1,
            "TEXCOORD_0": 2
          },
          "mode": 4,
          "material": 7,
          "indices": 10
        },
        {
          "attributes": {
            "POSITION": 0,
            "NORMAL": 1,
            "TEXCOORD_0": 2
          },
          "mode": 4,
          "material": 8,
          "indices": 11
        },
        {
          "attributes": {
            "POSITION": 0,
            "NORMAL": 1,
            "TEXCOORD_0": 2
          },
          "mode": 4,
          "material": 9,
          "indices": 12
        },
        {
          "attributes": {
            "POSITION": 0,
            "NORMAL": 1,
            "TEXCOORD_0": 2
          },
          "mode": 4,
          "material": 10,
          "indices": 13
        },
        {
          "attributes": {
            "POSITION": 0,
            "NORMAL": 1,
            "TEXCOORD_0": 2
          },
          "mode": 4,
          "material": 11,
          "indices": 14
        },
        {
          "attributes": {
            "POSITION": 0,
            "NORMAL": 1,
            "TEXCOORD_0": 2
          },
          "mode": 4,
          "material": 12,
          "indices": 15
        },
        {
          "attributes": {
            "POSITION": 0,
            "NORMAL": 1,
            "TEXCOORD_0": 2
          },
          "mode": 4,
          "material": 13,
          "indices": 16
        },
        {
          "attributes": {
            "POSITION": 0,
            "NORMAL": 1,
            "TEXCOORD_0": 2
          },
          "mode": 4,
          "material": 14,
          "indices": 17
        },
        {
          "attributes": {
            "POSITION": 0,
            "NORMAL": 1,
            "TEXCOORD_0": 2
          },
          "mode": 4,
          "material": 15,
          "indices": 18
        }
      ]
    },
    {
      "primitives": [
        {
          "attributes": {
            "POSITION": 74,
            "NORMAL": 75,
            "TEXCOORD_0": 76
          },
          "mode": 4,
          "material": 12,
          "indices": 19
        },
        {
          "attributes": {
            "POSITION": 74,
            "NORMAL": 75,
            "TEXCOORD_0": 76
          },
          "mode": 4,
          "material": 8,
          "indices": 20
        }
      ]
    },
    {
      "primitives": [
        {
          "attributes": {
            "POSITION": 77,
            "NORMAL": 78,
            "TEXCOORD_0": 79
          },
          "mode": 4,
          "material": 12,
          "indices": 21
        },
        {
          "attributes": {
            "POSITION": 77,
            "NORMAL": 78,
            "TEXCOORD_0": 79
          },
          "mode": 4,
          "material": 8,
          "indices": 22
        }
      ]
    },
    {
      "primitives": [
        {
          "attributes": {
            "POSITION": 80,
            "NORMAL": 81,
            "TEXCOORD_0": 82
          },
          "mode": 4,
          "material": 9
        }
      ]
    },
    {
      "primitives": [
        {
          "attributes": {
            "POSITION": 83,
            "NORMAL": 84,
            "TEXCOORD_0": 85
          },
          "mode": 4,
          "material": 9
        }
      ]
    },
    {
      "primitives": [
        {
          "attributes": {
            "POSITION": 86,
            "NORMAL": 87,
            "TEXCOORD_0": 88
          },
          "mode": 4,
          "material": 9
        }
      ]
    },
    {
      "primitives": [
        {
          "attributes": {
            "POSITION": 89,
            "NORMAL": 90,
            "TEXCOORD_0": 91
          },
          "mode": 4,
          "material": 9
        }
      ]
    },
    {
      "primitives": [
        {
          "attributes": {
            "POSITION": 92,
            "NORMAL": 93,
            "TEXCOORD_0": 94
          },
          "mode": 4,
          "material": 9,
          "indices": 23
        },
        {
          "attributes": {
            "POSITION": 92,
            "NORMAL": 93,
            "TEXCOORD_0": 94
          },
          "mode": 4,
          "material": 1,
          "indices": 24
        },
        {
          "attributes": {
            "POSITION": 92,
            "NORMAL": 93,
            "TEXCOORD_0": 94
          },
          "mode": 4,
          "material": 12,
          "indices": 25
        },
        {
          "attributes": {
            "POSITION": 92,
            "NORMAL": 93,
            "TEXCOORD_0": 94
          },
          "mode": 4,
          "material": 6,
          "indices": 26
        }
      ]
    },
    {
      "primitives": [
        {
          "attributes": {
            "POSITION": 95,
            "NORMAL": 96,
            "TEXCOORD_0": 97
          },
          "mode": 4,
          "material": 9,
          "indices": 27
        },
        {
          "attributes": {
            "POSITION": 95,
            "NORMAL": 96,
            "TEXCOORD_0": 97
          },
          "mode": 4,
          "material": 1,
          "indices": 28
        },
        {
          "attributes": {
            "POSITION": 95,
            "NORMAL": 96,
            "TEXCOORD_0": 97
          },
          "mode": 4,
          "material": 12,
          "indices": 29
        },
        {
          "attributes": {
            "POSITION": 95,
            "NORMAL": 96,
            "TEXCOORD_0": 97
          },
          "mode": 4,
          "material": 6,
          "indices": 30
        }
      ]
    },
    {
      "primitives": [
        {
          "attributes": {
            "POSITION": 98,
            "NORMAL": 99,
            "TEXCOORD_0": 100
          },
          "mode": 4,
          "material": 1,
          "indices": 31
        },
        {
          "attributes": {
            "POSITION": 98,
            "NORMAL": 99,
            "TEXCOORD_0": 100
          },
          "mode": 4,
          "material": 12,
          "indices": 32
        }
      ]
    },
    {
      "primitives": [
        {
          "attributes": {
            "POSITION": 101,
            "NORMAL": 102,
            "TEXCOORD_0": 103
          },
          "mode": 4,
          "material": 1,
          "indices": 33
        },
        {
          "attributes": {
            "POSITION": 101,
            "NORMAL": 102,
            "TEXCOORD_0": 103
          },
          "mode": 4,
          "material": 12,
          "indices": 34
        }
      ]
    },
    {
      "primitives": [
        {
          "attributes": {
            "POSITION": 104,
            "NORMAL": 105,
            "TEXCOORD_0": 106
          },
          "mode": 4,
          "material": 1,
          "indices": 35
        },
        {
          "attributes": {
            "POSITION": 104,
            "NORMAL": 105,
            "TEXCOORD_0": 106
          },
          "mode": 4,
          "material": 12,
          "indices": 36
        }
      ]
    },
    {
      "primitives": [
        {
          "attributes": {
            "POSITION": 107,
            "NORMAL": 108,
            "TEXCOORD_0": 109
          },
          "mode": 4,
          "material": 8
        }
      ]
    },
    {
      "primitives": [
        {
          "attributes": {
            "POSITION": 110,
            "NORMAL": 111,
            "TEXCOORD_0": 112
          },
          "mode": 4,
          "material": 9
        }
      ]
    },
    {
      "primitives": [
        {
          "attributes": {
            "POSITION": 113,
            "NORMAL": 114,
            "TEXCOORD_0": 115
          },
          "mode": 4,
          "material": 7
        }
      ]
    },
    {
      "primitives": [
        {
          "attributes": {
            "POSITION": 116,
            "NORMAL": 117,
            "TEXCOORD_0": 118
          },
          "mode": 4,
          "material": 7
        }
      ]
    },
    {
      "primitives": [
        {
          "attributes": {
            "POSITION": 119,
            "NORMAL": 120,
            "TEXCOORD_0": 121
          },
          "mode": 4,
          "material": 16,
          "indices": 37
        },
        {
          "attributes": {
            "POSITION": 119,
            "NORMAL": 120,
            "TEXCOORD_0": 121
          },
          "mode": 4,
          "material": 9,
          "indices": 38
        },
        {
          "attributes": {
            "POSITION": 119,
            "NORMAL": 120,
            "TEXCOORD_0": 121
          },
          "mode": 4,
          "material": 17,
          "indices": 39
        }
      ]
    },
    {
      "primitives": [
        {
          "attributes": {
            "POSITION": 122,
            "NORMAL": 123,
            "TEXCOORD_0": 124
          },
          "mode": 4,
          "material": 16,
          "indices": 40
        },
        {
          "attributes": {
            "POSITION": 122,
            "NORMAL": 123,
            "TEXCOORD_0": 124
          },
          "mode": 4,
          "material": 9,
          "indices": 41
        },
        {
          "attributes": {
            "POSITION": 122,
            "NORMAL": 123,
            "TEXCOORD_0": 124
          },
          "mode": 4,
          "material": 17,
          "indices": 42
        }
      ]
    },
    {
      "primitives": [
        {
          "attributes": {
            "POSITION": 125,
            "NORMAL": 126,
            "TEXCOORD_0": 127
          },
          "mode": 4,
          "material": 18,
          "indices": 43
        },
        {
          "attributes": {
            "POSITION": 125,
            "NORMAL": 126,
            "TEXCOORD_0": 127
          },
          "mode": 4,
          "material": 9,
          "indices": 44
        }
      ]
    },
    {
      "primitives": [
        {
          "attributes": {
            "POSITION": 128,
            "NORMAL": 129,
            "TEXCOORD_0": 130
          },
          "mode": 4,
          "material": 18,
          "indices": 45
        },
        {
          "attributes": {
            "POSITION": 128,
            "NORMAL": 129,
            "TEXCOORD_0": 130
          },
          "mode": 4,
          "material": 9,
          "indices": 46
        }
      ]
    },
    {
      "primitives": [
        {
          "attributes": {
            "POSITION": 131,
            "NORMAL": 132,
            "TEXCOORD_0": 133
          },
          "mode": 4,
          "material": 9,
          "indices": 47
        },
        {
          "attributes": {
            "POSITION": 131,
            "NORMAL": 132,
            "TEXCOORD_0": 133
          },
          "mode": 4,
          "material": 18,
          "indices": 48
        }
      ]
    },
    {
      "primitives": [
        {
          "attributes": {
            "POSITION": 134,
            "NORMAL": 135,
            "TEXCOORD_0": 136
          },
          "mode": 4,
          "material": 18,
          "indices": 49
        },
        {
          "attributes": {
            "POSITION": 134,
            "NORMAL": 135,
            "TEXCOORD_0": 136
          },
          "mode": 4,
          "material": 9,
          "indices": 50
        },
        {
          "attributes": {
            "POSITION": 134,
            "NORMAL": 135,
            "TEXCOORD_0": 136
          },
          "mode": 4,
          "material": 13,
          "indices": 51
        }
      ]
    },
    {
      "primitives": [
        {
          "attributes": {
            "POSITION": 137,
            "NORMAL": 138,
            "TEXCOORD_0": 139
          },
          "mode": 4,
          "material": 18,
          "indices": 52
        },
        {
          "attributes": {
            "POSITION": 137,
            "NORMAL": 138,
            "TEXCOORD_0": 139
          },
          "mode": 4,
          "material": 9,
          "indices": 53
        }
      ]
    },
    {
      "primitives": [
        {
          "attributes": {
            "POSITION": 140,
            "NORMAL": 141,
            "TEXCOORD_0": 142
          },
          "mode": 4,
          "material": 18,
          "indices": 54
        },
        {
          "attributes": {
            "POSITION": 140,
            "NORMAL": 141,
            "TEXCOORD_0": 142
          },
          "mode": 4,
          "material": 9,
          "indices": 55
        }
      ]
    },
    {
      "primitives": [
        {
          "attributes": {
            "POSITION": 143,
            "NORMAL": 144,
            "TEXCOORD_0": 145
          },
          "mode": 4,
          "material": 18,
          "indices": 56
        },
        {
          "attributes": {
            "POSITION": 143,
            "NORMAL": 144,
            "TEXCOORD_0": 145
          },
          "mode": 4,
          "material": 9,
          "indices": 57
        }
      ]
    },
    {
      "primitives": [
        {
          "attributes": {
            "POSITION": 146,
            "NORMAL": 147,
            "TEXCOORD_0": 148
          },
          "mode": 4,
          "material": 9
        }
      ]
    },
    {
      "primitives": [
        {
          "attributes": {
            "POSITION": 149,
            "NORMAL": 150,
            "TEXCOORD_0": 151
          },
          "mode": 4,
          "material": 9
        }
      ]
    },
    {
      "primitives": [
        {
          "attributes": {
            "POSITION": 152,
            "NORMAL": 153,
            "TEXCOORD_0": 154
          },
          "mode": 4,
          "material": 9
        }
      ]
    },
    {
      "primitives": [
        {
          "attributes": {
            "POSITION": 155,
            "NORMAL": 156,
            "TEXCOORD_0": 157
          },
          "mode": 4,
          "material": 9
        }
      ]
    },
    {
      "primitives": [
        {
          "attributes": {
            "POSITION": 158,
            "NORMAL": 159,
            "TEXCOORD_0": 160
          },
          "mode": 4,
          "material": 19,
          "indices": 58
        },
        {
          "attributes": {
            "POSITION": 158,
            "NORMAL": 159,
            "TEXCOORD_0": 160
          },
          "mode": 4,
          "material": 9,
          "indices": 59
        }
      ]
    },
    {
      "primitives": [
        {
          "attributes": {
            "POSITION": 161,
            "NORMAL": 162,
            "TEXCOORD_0": 163
          },
          "mode": 4,
          "material": 9
        }
      ]
    },
    {
      "primitives": [
        {
          "attributes": {
            "POSITION": 164,
            "NORMAL": 165,
            "TEXCOORD_0": 166
          },
          "mode": 4,
          "material": 9
        }
      ]
    },
    {
      "primitives": [
        {
          "attributes": {
            "POSITION": 167,
            "NORMAL": 168,
            "TEXCOORD_0": 169
          },
          "mode": 4,
          "material": 19,
          "indices": 60
        },
        {
          "attributes": {
            "POSITION": 167,
            "NORMAL": 168,
            "TEXCOORD_0": 169
          },
          "mode": 4,
          "material": 9,
          "indices": 61
        }
      ]
    },
    {
      "primitives": [
        {
          "attributes": {
            "POSITION": 170,
            "NORMAL": 171,
            "TEXCOORD_0": 172
          },
          "mode": 4,
          "material": 9,
          "indices": 62
        },
        {
          "attributes": {
            "POSITION": 170,
            "NORMAL": 171,
            "TEXCOORD_0": 172
          },
          "mode": 4,
          "material": 19,
          "indices": 63
        }
      ]
    },
    {
      "primitives": [
        {
          "attributes": {
            "POSITION": 173,
            "NORMAL": 174,
            "TEXCOORD_0": 175
          },
          "mode": 4,
          "material": 9,
          "indices": 64
        },
        {
          "attributes": {
            "POSITION": 173,
            "NORMAL": 174,
            "TEXCOORD_0": 175
          },
          "mode": 4,
          "material": 7,
          "indices": 65
        },
        {
          "attributes": {
            "POSITION": 173,
            "NORMAL": 174,
            "TEXCOORD_0": 175
          },
          "mode": 4,
          "material": 20,
          "indices": 66
        },
        {
          "attributes": {
            "POSITION": 173,
            "NORMAL": 174,
            "TEXCOORD_0": 175
          },
          "mode": 4,
          "material": 3,
          "indices": 67
        }
      ]
    },
    {
      "primitives": [
        {
          "attributes": {
            "POSITION": 176,
            "NORMAL": 177,
            "TEXCOORD_0": 178
          },
          "mode": 4,
          "material": 9,
          "indices": 68
        },
        {
          "attributes": {
            "POSITION": 176,
            "NORMAL": 177,
            "TEXCOORD_0": 178
          },
          "mode": 4,
          "material": 7,
          "indices": 69
        }
      ]
    },
    {
      "primitives": [
        {
          "attributes": {
            "POSITION": 179,
            "NORMAL": 180,
            "TEXCOORD_0": 181
          },
          "mode": 4,
          "material": 9,
          "indices": 70
        },
        {
          "attributes": {
            "POSITION": 179,
            "NORMAL": 180,
            "TEXCOORD_0": 181
          },
          "mode": 4,
          "material": 7,
          "indices": 71
        }
      ]
    },
    {
      "primitives": [
        {
          "attributes": {
            "POSITION": 182,
            "NORMAL": 183,
            "TEXCOORD_0": 184
          },
          "mode": 4,
          "material": 6
        }
      ]
    },
    {
      "primitives": [
        {
          "attributes": {
            "POSITION": 185,
            "NORMAL": 186,
            "TEXCOORD_0": 187
          },
          "mode": 4,
          "material": 3
        }
      ]
    },
    {
      "primitives": [
        {
          "attributes": {
            "POSITION": 188,
            "NORMAL": 189,
            "TEXCOORD_0": 190
          },
          "mode": 4,
          "material": 3
        }
      ]
    },
    {
      "primitives": [
        {
          "attributes": {
            "POSITION": 191,
            "NORMAL": 192,
            "TEXCOORD_0": 193
          },
          "mode": 4,
          "material": 20,
          "indices": 72
        },
        {
          "attributes": {
            "POSITION": 191,
            "NORMAL": 192,
            "TEXCOORD_0": 193
          },
          "mode": 4,
          "material": 7,
          "indices": 73
        }
      ]
    }
  ],
  "nodes": [
    {
      "name": "empty_2",
      "children": [
        1,
        2,
        3,
        4,
        5,
        6,
        7,
        8,
        9,
        10,
        11,
        12,
        13,
        14,
        15,
        16,
        17,
        18,
        19,
        20,
        21,
        22,
        23,
        24,
        25,
        26,
        27,
        28,
        29,
        30,
        31,
        32,
        33,
        34,
        35,
        36,
        37,
        38,
        39,
        40,
        41
      ]
    },
    {
      "name": "g Body",
      "mesh": 0
    },
    {
      "name": "g Tank1",
      "mesh": 1
    },
    {
      "name": "g Tank2",
      "mesh": 2
    },
    {
      "name": "g RightWheelAssy",
      "mesh": 3
    },
    {
      "name": "g LeftWheelAssy",
      "mesh": 4
    },
    {
      "name": "g BackWheelAssy",
      "mesh": 5
    },
    {
      "name": "g BackAssyHousing",
      "mesh": 6
    },
    {
      "name": "g LeftDoor",
      "mesh": 7
    },
    {
      "name": "g RightDoor",
      "mesh": 8
    },
    {
      "name": "g LHSideDoorA",
      "mesh": 9
    },
    {
      "name": "g LHSideDoorB",
      "mesh": 10
    },
    {
      "name": "g RightDoor1",
      "mesh": 11
    },
    {
      "name": "g polySurface30",
      "mesh": 12
    },
    {
      "name": "g polySurface56",
      "mesh": 13
    },
    {
      "name": "g LeftControlStick",
      "mesh": 14
    },
    {
      "name": "g RightControlStick",
      "mesh": 15
    },
    {
      "name": "g LeftSeat",
      "mesh": 16
    },
    {
      "name": "g RightSeat",
      "mesh": 17
    },
    {
      "name": "g JumpSeat1",
      "mesh": 18
    },
    {
      "name": "g JumpSeat2",
      "mesh": 19
    },
    {
      "name": "g JumpSeat3",
      "mesh": 20
    },
    {
      "name": "g JumpSeat4",
      "mesh": 21
    },
    {
      "name": "g JumpSeat5",
      "mesh": 22
    },
    {
      "name": "g JumpSeat6",
      "mesh": 23
    },
    {
      "name": "g JumpSeat7",
      "mesh": 24
    },
    {
      "name": "g BackAssyArm2",
      "mesh": 25
    },
    {
      "name": "g BackAssyArm1",
      "mesh": 26
    },
    {
      "name": "g RightFrontUpperShock",
      "mesh": 27
    },
    {
      "name": "g RightFrontAxle",
      "mesh": 28
    },
    {
      "name": "g RightWheel",
      "mesh": 29
    },
    {
      "name": "g LeftFrontTopShock",
      "mesh": 30
    },
    {
      "name": "g LeftFrontAxle",
      "mesh": 31
    },
    {
      "name": "g LeftWheel",
      "mesh": 32
    },
    {
      "name": "g RearWheel",
      "mesh": 33
    },
    {
      "name": "g TopRotor",
      "mesh": 34
    },
    {
      "name": "g RightWiper",
      "mesh": 35
    },
    {
      "name": "g LeftWiper",
      "mesh": 36
    },
    {
      "name": "g TailFin",
      "mesh": 37
    },
    {
      "name": "g TailFinStabilizerA",
      "mesh": 38
    },
    {
      "name": "g TailFinStabilizerB",
      "mesh": 39
    },
    {
      "name": "g TailRotor",
      "mesh": 40
    }
  ],
  "scenes": [
    {
      "name": "empty_1",
      "nodes": [
        0
      ]
    }
  ],
  "scene": 0
}